<svg xmlns="http://www.w3.org/2000/svg" viewBox="0 0 1600 900" width="1600" height="900" role="img" aria-label="曝氣池與散氣系統">
  <defs>
    <pattern id="grid" width="40" height="40" patternUnits="userSpaceOnUse">
      <path d="M40 0H0v40" fill="none" stroke="#dbe9e0" stroke-width="1"/>
    </pattern>
    <linearGradient id="bg" x1="0" y1="0" x2="1" y2="1">
      <stop offset="0" stop-color="#f4faf6"/><stop offset="1" stop-color="#e0f1e7"/>
    </linearGradient>
  </defs>
  <rect width="1600" height="900" fill="url(#bg)"/>
  <rect width="1600" height="900" fill="url(#grid)"/>
  <rect x="16" y="16" width="1568" height="868" fill="none" stroke="#c4dccd" stroke-width="2"/>
  <g fill="none" stroke="#00a54e" stroke-width="5">
      <path d="M120 400h560v150H120z"/><path d="M120 400V250h560v150"/>
      <path d="M170 550V430M270 550V430M370 550V430M470 550V430M570 550V430" stroke-width="3" opacity=".55"/>
      <circle cx="240" cy="330" r="16"/><circle cx="330" cy="300" r="22"/><circle cx="430" cy="320" r="14"/>
      <circle cx="520" cy="292" r="20"/><circle cx="600" cy="330" r="12"/></g>
  <text x="40" y="842" font-family="Segoe UI, Noto Sans TC, sans-serif" font-size="26" font-weight="700" fill="#0b4a2c">曝氣池與散氣系統</text>
  <text x="40" y="872" font-family="Segoe UI, sans-serif" font-size="17" fill="#5a6b61">Hero image — replace with a site photo (1600×900)</text>
</svg>
